<svg xmlns="http://www.w3.org/2000/svg" viewBox="0 0 388.16 100.62"><defs><style>.cls-1,.cls-2{fill:#fff;}.cls-1{stroke:#fbb203;stroke-miterlimit:10;stroke-width:2.64px;}.cls-3,.cls-4{fill:#fbb203;}.cls-4,.cls-5{font-size:42.29px;font-family:GrestalScriptDEMO-Regular, Grestal Script DEMO;}.cls-5{fill:#4285f4;}</style></defs><g id="Calque_2" data-name="Calque 2"><g id="Calque_1-2" data-name="Calque 1"><path class="cls-1" d="M135.85,46.78c0,28.65-37.8,39.28-52.74,14.8a40.39,40.39,0,0,1-28,2.1c-13.6,26.43-53.76,16.77-53.76-13A28.45,28.45,0,0,1,35.75,22.87l.65.15c.58-.85,1.19-1.68,1.84-2.46,11.86-14.28,36.12-16.18,51-4.87a30.85,30.85,0,0,1,5.66,5.53c.31-.16.63-.3.94-.44A28.47,28.47,0,0,1,135.85,46.78Z"/><path class="cls-1" d="M100.94,91.89c-20.54-12.82-44.22-12.82-64.75,0-1.28.79-2.67-.63-2.67-2.73,0-19.55-.39-20.06,1.16-21.08,33-21.77,68.93-3.42,68.93,2.72C103.61,86.41,104.47,94.09,100.94,91.89Z"/><path class="cls-2" d="M117.12,50.68c0,12.27-15.3,22.22-34.19,22.22S48.74,63,48.74,50.68"/><path class="cls-3" d="M117.12,50.68A16.25,16.25,0,0,1,114,61.56a27,27,0,0,1-8.72,7.71,40.17,40.17,0,0,1-10.82,4.25A53.83,53.83,0,0,1,82.93,74.9a53.91,53.91,0,0,1-11.52-1.38,39.78,39.78,0,0,1-10.82-4.25,27.28,27.28,0,0,1-8.72-7.7,16.35,16.35,0,0,1-3.13-10.89,17.52,17.52,0,0,0,4.66,9.66,28,28,0,0,0,8.66,6.17,42.73,42.73,0,0,0,10.18,3.32A54,54,0,0,0,82.93,70.9a53.27,53.27,0,0,0,10.7-1.07,42.7,42.7,0,0,0,10.18-3.31,28.16,28.16,0,0,0,8.66-6.18A17.4,17.4,0,0,0,117.12,50.68Z"/><path class="cls-3" d="M36.73,40c-2.33-4.78-2.56-10.87-1-17.17l.65.15c.58-.85,1.19-1.68,1.84-2.46A28.58,28.58,0,0,0,36.73,40Z"/><path class="cls-3" d="M118.8,31.22c-14.38,1.86-24.08-5.17-29.55-15.53a30.85,30.85,0,0,1,5.66,5.53c.31-.16.63-.3.94-.44C101.07,27,108.61,31.13,118.8,31.22Z"/><path class="cls-3" d="M34,68.69A4.9,4.9,0,0,0,33.54,71c-8.62-4.48-11.38-10.33-11.9-20.32C23.58,59.74,25.82,64.87,34,68.69Z"/><text class="cls-5" transform="translate(155.22 81.76)">SCHEMA CHEF</text></g></g></svg>