<svg width="20" height="20" xmlns="http://www.w3.org/2000/svg" viewBox="0 0 19.25 19.24"><defs><style>.cls-1{fill:#fff;}.cls-1,.cls-2{stroke:#000;stroke-miterlimit:10;stroke-width:0.25px;}.cls-2{fill:#1d2327;}</style></defs><g id="Calque_2" data-name="Calque 2"><g id="Calque_1-2" data-name="Calque 1"><path class="cls-1" d="M14.78,3.05a.36.36,0,0,1-.35-.2A5.39,5.39,0,0,0,9.94.13,5.42,5.42,0,0,0,4.78,2.91a.26.26,0,0,1-.27.14,3.92,3.92,0,0,0-1.23.1,4.14,4.14,0,0,0-.45,7.9.29.29,0,0,1,.22.32C3,13.18,3,15,3,16.81a2.2,2.2,0,0,0,2.31,2.3h8.54a2.58,2.58,0,0,0,.68-.07,2.18,2.18,0,0,0,1.62-2.14q0-2.77,0-5.55a.25.25,0,0,1,.2-.29A4.19,4.19,0,0,0,19.12,7.4,4.13,4.13,0,0,0,14.78,3.05Zm-.87,14.6H5.33a.74.74,0,0,1-.82-.81c0-.8,0-1.59,0-2.38,0-.17,0-.23.22-.23h9.8c.18,0,.22.06.22.23,0,.79,0,1.58,0,2.38A.74.74,0,0,1,13.91,17.65ZM15.47,9.8a.77.77,0,0,0-.73.89c0,.63,0,1.26,0,1.9,0,.13,0,.19-.18.19H13.1c-.15,0-.18,0-.15-.18.11-.6.2-1.21.3-1.82a.74.74,0,0,0-.6-.91.75.75,0,0,0-.84.67c-.11.7-.24,1.39-.35,2.09,0,.12-.06.15-.17.15h-.75c-.15,0-.2,0-.19-.18,0-.51,0-1,0-1.51V9.67a.73.73,0,1,0-1.46,0v2.9c0,.15,0,.21-.19.2a3.64,3.64,0,0,0-.66,0c-.21,0-.26-.07-.28-.24l-.33-2A.73.73,0,1,0,6,10.79c.1.6.19,1.2.3,1.79,0,.18,0,.2-.17.2H4.68c-.14,0-.18,0-.18-.18,0-.63,0-1.27,0-1.91a.79.79,0,0,0-.73-.89A2.67,2.67,0,1,1,4.83,4.56a.76.76,0,0,0,1-.51A4,4,0,0,1,9.61,1.59,4,4,0,0,1,13.4,4a.77.77,0,0,0,1,.52A2.67,2.67,0,1,1,15.47,9.8Z"/><path class="cls-2" d="M14.74,14.46c0,.79,0,1.58,0,2.38a.74.74,0,0,1-.82.81H5.33a.74.74,0,0,1-.82-.81c0-.8,0-1.59,0-2.38,0-.17,0-.23.22-.23h9.8C14.7,14.23,14.74,14.29,14.74,14.46Z"/><path class="cls-2" d="M15.47,9.8a.77.77,0,0,0-.73.89c0,.63,0,1.26,0,1.9,0,.13,0,.19-.18.19H13.1c-.15,0-.18,0-.15-.18.11-.6.2-1.21.3-1.82a.74.74,0,0,0-.6-.91.75.75,0,0,0-.84.67c-.11.7-.24,1.39-.35,2.09,0,.12-.06.15-.17.15h-.75c-.15,0-.2,0-.19-.18,0-.51,0-1,0-1.51V9.67a.73.73,0,1,0-1.46,0v2.9c0,.15,0,.21-.19.2a3.64,3.64,0,0,0-.66,0c-.21,0-.26-.07-.28-.24l-.33-2A.73.73,0,1,0,6,10.79c.1.6.19,1.2.3,1.79,0,.18,0,.2-.17.2H4.68c-.14,0-.18,0-.18-.18,0-.63,0-1.27,0-1.91a.79.79,0,0,0-.73-.89A2.67,2.67,0,1,1,4.83,4.56a.76.76,0,0,0,1-.51A4,4,0,0,1,9.61,1.59,4,4,0,0,1,13.4,4a.77.77,0,0,0,1,.52A2.67,2.67,0,1,1,15.47,9.8Z"/></g></g></svg>